<svg width="16" height="16" viewBox="0 0 16 16" fill="none" xmlns="http://www.w3.org/2000/svg">
<g clip-path="url(#clip0_1392_1416)">
<path fill-rule="evenodd" clip-rule="evenodd" d="M11.6946 7.24365C11.8901 7.44084 12 7.70825 12 7.98708C12 8.26591 11.8901 8.53332 11.6946 8.73051L5.79348 14.679C5.69725 14.7794 5.58214 14.8595 5.45487 14.9146C5.32761 14.9697 5.19072 14.9987 5.05222 15C4.91371 15.0012 4.77635 14.9746 4.64815 14.9217C4.51995 14.8688 4.40348 14.7907 4.30553 14.692C4.20759 14.5933 4.13013 14.4759 4.07768 14.3467C4.02523 14.2174 3.99884 14.079 4.00004 13.9393C4.00124 13.7997 4.03002 13.6617 4.08469 13.5334C4.13936 13.4052 4.21883 13.2891 4.31846 13.1921L9.48206 7.98708L4.31846 2.78203C4.12844 2.58371 4.0233 2.31809 4.02568 2.04239C4.02805 1.76668 4.13776 1.50295 4.33117 1.30798C4.52458 1.11302 4.78621 1.00244 5.05972 1.00004C5.33323 0.997644 5.59674 1.10363 5.79348 1.29518L11.6946 7.24365Z" fill="black"/>
</g>
<defs>
<clipPath id="clip0_1392_1416">
<rect width="16" height="16" fill="white"/>
</clipPath>
</defs>
</svg>
